<svg width="21" height="20" viewBox="0 0 21 20" fill="none" xmlns="http://www.w3.org/2000/svg">
<g id="Icon20_AllGame.a302cd6.svg">
<g id="Group">
<g id="Group_2">
<g id="Group_3">
<path id="Vector" fill-rule="evenodd" clip-rule="evenodd" d="M7.3395 13C7.56238 13 7.6432 13.0232 7.72468 13.0668C7.80616 13.1104 7.87011 13.1743 7.91369 13.2558C7.95726 13.3373 7.98047 13.4181 7.98047 13.641V16.359C7.98047 16.5819 7.95726 16.6627 7.91369 16.7442C7.87011 16.8257 7.80616 16.8896 7.72468 16.9332C7.6432 16.9768 7.56238 17 7.3395 17H4.62144C4.39856 17 4.31774 16.9768 4.23626 16.9332C4.15478 16.8896 4.09083 16.8257 4.04725 16.7442C4.00368 16.6627 3.98047 16.5819 3.98047 16.359V13.641C3.98047 13.4181 4.00368 13.3373 4.04725 13.2558C4.09083 13.1743 4.15478 13.1104 4.23626 13.0668C4.31774 13.0232 4.39856 13 4.62144 13H7.3395ZM12.3395 13C12.5624 13 12.6432 13.0232 12.7247 13.0668C12.8062 13.1104 12.8701 13.1743 12.9137 13.2558C12.9573 13.3373 12.9805 13.4181 12.9805 13.641V16.359C12.9805 16.5819 12.9573 16.6627 12.9137 16.7442C12.8701 16.8257 12.8062 16.8896 12.7247 16.9332C12.6432 16.9768 12.5624 17 12.3395 17H9.62144C9.39856 17 9.31774 16.9768 9.23626 16.9332C9.15478 16.8896 9.09083 16.8257 9.04725 16.7442C9.00367 16.6627 8.98047 16.5819 8.98047 16.359V13.641C8.98047 13.4181 9.00367 13.3373 9.04725 13.2558C9.09083 13.1743 9.15478 13.1104 9.23626 13.0668C9.31774 13.0232 9.39856 13 9.62144 13H12.3395ZM17.3395 13C17.5624 13 17.6432 13.0232 17.7247 13.0668C17.8062 13.1104 17.8701 13.1743 17.9137 13.2558C17.9573 13.3373 17.9805 13.4181 17.9805 13.641V16.359C17.9805 16.5819 17.9573 16.6627 17.9137 16.7442C17.8701 16.8257 17.8062 16.8896 17.7247 16.9332C17.6432 16.9768 17.5624 17 17.3395 17H14.6214C14.3986 17 14.3177 16.9768 14.2363 16.9332C14.1548 16.8896 14.0908 16.8257 14.0473 16.7442C14.0037 16.6627 13.9805 16.5819 13.9805 16.359V13.641C13.9805 13.4181 14.0037 13.3373 14.0473 13.2558C14.0908 13.1743 14.1548 13.1104 14.2363 13.0668C14.3177 13.0232 14.3986 13 14.6214 13H17.3395ZM7.3395 8C7.56238 8 7.6432 8.02321 7.72468 8.06678C7.80616 8.11036 7.87011 8.17431 7.91369 8.25579C7.95726 8.33727 7.98047 8.41809 7.98047 8.64097V11.359C7.98047 11.5819 7.95726 11.6627 7.91369 11.7442C7.87011 11.8257 7.80616 11.8896 7.72468 11.9332C7.6432 11.9768 7.56238 12 7.3395 12H4.62144C4.39856 12 4.31774 11.9768 4.23626 11.9332C4.15478 11.8896 4.09083 11.8257 4.04725 11.7442C4.00368 11.6627 3.98047 11.5819 3.98047 11.359V8.64097C3.98047 8.41809 4.00368 8.33727 4.04725 8.25579C4.09083 8.17431 4.15478 8.11036 4.23626 8.06678C4.31774 8.02321 4.39856 8 4.62144 8H7.3395ZM12.3395 8C12.5624 8 12.6432 8.02321 12.7247 8.06678C12.8062 8.11036 12.8701 8.17431 12.9137 8.25579C12.9573 8.33727 12.9805 8.41809 12.9805 8.64097V11.359C12.9805 11.5819 12.9573 11.6627 12.9137 11.7442C12.8701 11.8257 12.8062 11.8896 12.7247 11.9332C12.6432 11.9768 12.5624 12 12.3395 12H9.62144C9.39856 12 9.31774 11.9768 9.23626 11.9332C9.15478 11.8896 9.09083 11.8257 9.04725 11.7442C9.00367 11.6627 8.98047 11.5819 8.98047 11.359V8.64097C8.98047 8.41809 9.00367 8.33727 9.04725 8.25579C9.09083 8.17431 9.15478 8.11036 9.23626 8.06678C9.31774 8.02321 9.39856 8 9.62144 8H12.3395ZM17.3395 8C17.5624 8 17.6432 8.02321 17.7247 8.06678C17.8062 8.11036 17.8701 8.17431 17.9137 8.25579C17.9573 8.33727 17.9805 8.41809 17.9805 8.64097V11.359C17.9805 11.5819 17.9573 11.6627 17.9137 11.7442C17.8701 11.8257 17.8062 11.8896 17.7247 11.9332C17.6432 11.9768 17.5624 12 17.3395 12H14.6214C14.3986 12 14.3177 11.9768 14.2363 11.9332C14.1548 11.8896 14.0908 11.8257 14.0473 11.7442C14.0037 11.6627 13.9805 11.5819 13.9805 11.359V8.64097C13.9805 8.41809 14.0037 8.33727 14.0473 8.25579C14.0908 8.17431 14.1548 8.11036 14.2363 8.06678C14.3177 8.02321 14.3986 8 14.6214 8H17.3395ZM7.3395 3C7.56238 3 7.6432 3.02321 7.72468 3.06678C7.80616 3.11036 7.87011 3.17431 7.91369 3.25579C7.95726 3.33727 7.98047 3.41809 7.98047 3.64097V6.35903C7.98047 6.58191 7.95726 6.66273 7.91369 6.74421C7.87011 6.82569 7.80616 6.88964 7.72468 6.93322C7.6432 6.97679 7.56238 7 7.3395 7H4.62144C4.39856 7 4.31774 6.97679 4.23626 6.93322C4.15478 6.88964 4.09083 6.82569 4.04725 6.74421C4.00368 6.66273 3.98047 6.58191 3.98047 6.35903V3.64097C3.98047 3.41809 4.00368 3.33727 4.04725 3.25579C4.09083 3.17431 4.15478 3.11036 4.23626 3.06678C4.31774 3.02321 4.39856 3 4.62144 3H7.3395ZM12.3395 3C12.5624 3 12.6432 3.02321 12.7247 3.06678C12.8062 3.11036 12.8701 3.17431 12.9137 3.25579C12.9573 3.33727 12.9805 3.41809 12.9805 3.64097V6.35903C12.9805 6.58191 12.9573 6.66273 12.9137 6.74421C12.8701 6.82569 12.8062 6.88964 12.7247 6.93322C12.6432 6.97679 12.5624 7 12.3395 7H9.62144C9.39856 7 9.31774 6.97679 9.23626 6.93322C9.15478 6.88964 9.09083 6.82569 9.04725 6.74421C9.00367 6.66273 8.98047 6.58191 8.98047 6.35903V3.64097C8.98047 3.41809 9.00367 3.33727 9.04725 3.25579C9.09083 3.17431 9.15478 3.11036 9.23626 3.06678C9.31774 3.02321 9.39856 3 9.62144 3H12.3395ZM17.3395 3C17.5624 3 17.6432 3.02321 17.7247 3.06678C17.8062 3.11036 17.8701 3.17431 17.9137 3.25579C17.9573 3.33727 17.9805 3.41809 17.9805 3.64097V6.35903C17.9805 6.58191 17.9573 6.66273 17.9137 6.74421C17.8701 6.82569 17.8062 6.88964 17.7247 6.93322C17.6432 6.97679 17.5624 7 17.3395 7H14.6214C14.3986 7 14.3177 6.97679 14.2363 6.93322C14.1548 6.88964 14.0908 6.82569 14.0473 6.74421C14.0037 6.66273 13.9805 6.58191 13.9805 6.35903V3.64097C13.9805 3.41809 14.0037 3.33727 14.0473 3.25579C14.0908 3.17431 14.1548 3.11036 14.2363 3.06678C14.3177 3.02321 14.3986 3 14.6214 3H17.3395Z" fill="black"/>
</g>
</g>
</g>
</g>
</svg>
